<svg width="458" height="491" viewBox="0 0 458 491" fill="none" xmlns="http://www.w3.org/2000/svg">
  <path d="M73.446 415.805C108.17 466.292 158.219 492.83 203.765 490.936C254.458 488.875 300.748 454.667 339.332 416.156C383.617 370.85 422.489 322.82 439.081 276.003C454.744 231.47 452.797 185.754 436.733 147.268C420.935 110.013 390.824 79.0309 352.679 61.1384C312.102 42.1542 265.794 34.5477 223.982 49.5418C185.72 62.8821 152.24 91.7309 115.213 128.522C77.4809 165.44 36.9727 209.566 21.1087 255.17C6.81268 298.156 15.0823 345.825 40.6192 385.24C56.6752 408.275 67.8371 425.693 73.446 415.805Z" fill="#610000"/>
</svg>
