<svg width="509" height="462" viewBox="0 0 509 462" fill="none" xmlns="http://www.w3.org/2000/svg">
  <defs>
    <clipPath id="clip-path" transform="translate(4.99561 4.99567) scale(1.005)">
      <path d="M484.236 66.6351C512.97 119.193 523.732 179.995 515.301 237.002C506.869 294.009 479.281 346.221 440.636 383.931C401.991 421.641 354.162 442.486 306.165 439.539C258.168 436.593 210.759 409.804 175.378 364.788C139.998 319.771 118.982 258.527 118.28 196.175C117.577 133.823 137.214 71.9734 174.336 29.8592C211.457 -12.2551 265.496 -31.6995 316.563 -21.3895C367.63 -11.0796 413.475 27.1806 441.621 75.0496C469.768 122.919 480.418 180.777 484.236 66.6351Z" fill="dark"/>
    </clipPath>
  </defs>
  <path d="M254.5 15.0518L498.186 230.241L254.5 445.43L10.8143 230.241L254.5 15.0518Z" fill="#E43359" />
</svg>

